<?xml version="1.0" standalone="no"?>
<!DOCTYPE svg PUBLIC "-//W3C//DTD SVG 20010904//EN"
 "http://www.w3.org/TR/2001/REC-SVG-20010904/DTD/svg10.dtd">
<svg version="1.0" xmlns="http://www.w3.org/2000/svg"
 width="195.000000pt" height="195.000000pt" viewBox="0 0 195.000000 195.000000"
 preserveAspectRatio="xMidYMid meet">
<metadata>
Created by potrace 1.11, written by Peter Selinger 2001-2013
</metadata>
<g transform="translate(0.000000,195.000000) scale(0.100000,-0.100000)"
fill="#000000" stroke="none">
<path d="M584 1867 c-2 -7 -3 -62 -2 -123 l3 -109 100 0 100 0 3 43 3 42 -60
0 -61 0 0 35 0 35 61 0 60 0 -3 43 -3 42 -98 3 c-75 2 -99 0 -103 -11z"/>
<path d="M860 1836 c0 -38 5 -48 40 -80 l40 -36 -41 0 -40 0 3 -42 3 -43 98
-3 97 -3 0 48 c0 39 -5 52 -32 80 l-32 33 32 0 c31 0 32 1 32 45 l0 45 -100 0
-100 0 0 -44z"/>
<path d="M1150 1833 c0 -43 4 -51 37 -80 l38 -32 -37 -1 -38 0 0 -45 0 -45
100 0 100 0 0 42 c0 35 -6 49 -37 80 l-37 38 37 0 37 0 0 45 0 45 -100 0 -100
0 0 -47z"/>
<path d="M337 1523 c-5 -9 109 -1282 115 -1288 2 -3 119 -36 260 -75 l255 -71
253 71 c140 38 257 73 261 77 3 5 30 274 58 598 29 325 55 614 58 643 l6 52
-631 0 c-347 0 -633 -3 -635 -7z m1023 -287 c0 -18 -3 -54 -6 -79 l-6 -45
-177 -78 c-97 -42 -180 -81 -185 -86 -6 -4 70 -8 167 -8 l177 0 0 -32 c0 -40
-28 -380 -35 -424 -5 -31 -6 -32 -154 -73 -81 -22 -159 -41 -172 -40 -13 0
-91 19 -174 42 l-150 42 -6 60 c-4 33 -9 88 -13 123 l-6 62 80 0 80 0 0 -34
c0 -86 4 -90 96 -115 l84 -22 86 23 c99 26 98 24 108 144 l6 81 -142 6 c-79 4
-202 7 -274 7 l-131 0 -7 71 c-3 39 -4 75 -1 80 4 5 86 9 185 9 l178 0 4 80 3
80 -193 0 c-145 0 -194 3 -196 13 -3 6 -7 42 -10 80 l-5 67 394 0 395 0 0 -34z"/>
</g>
</svg>
